<svg width="75" height="19" viewBox="0 0 75 19" fill="none" xmlns="http://www.w3.org/2000/svg">
<path d="M12.1792 15.5L10.7167 16.9437C10.4292 17.2312 10.0792 17.375 9.66675 17.375C9.25425 17.375 8.90425 17.2312 8.61675 16.9437L7.15425 15.5H5.16675C4.75425 15.5 4.401 15.353 4.107 15.059C3.813 14.765 3.66625 14.412 3.66675 14V12.0125L2.223 10.55C1.9355 10.2625 1.79175 9.9125 1.79175 9.5C1.79175 9.0875 1.9355 8.7375 2.223 8.45L3.66675 6.9875V5C3.66675 4.5875 3.81375 4.23425 4.10775 3.94025C4.40175 3.64625 4.75475 3.4995 5.16675 3.5H7.15425L8.61675 2.05625C8.90425 1.76875 9.25425 1.625 9.66675 1.625C10.0792 1.625 10.4292 1.76875 10.7167 2.05625L12.1792 3.5H14.1667C14.5792 3.5 14.9325 3.647 15.2265 3.941C15.5205 4.235 15.6672 4.588 15.6667 5V6.9875L17.1105 8.45C17.398 8.7375 17.5417 9.0875 17.5417 9.5C17.5417 9.9125 17.398 10.2625 17.1105 10.55L15.6667 12.0125V14C15.6667 14.4125 15.5197 14.7657 15.2257 15.0597C14.9317 15.3538 14.5787 15.5005 14.1667 15.5H12.1792ZM9.66675 11.3563L11.1105 12.2188C11.248 12.3062 11.3822 12.3033 11.5132 12.2098C11.6442 12.1163 11.6912 11.988 11.6542 11.825L11.2792 10.1938L12.5542 9.0875C12.6792 8.975 12.7167 8.84075 12.6667 8.68475C12.6167 8.52875 12.5042 8.44425 12.3292 8.43125L10.6605 8.3L10.0042 6.74375C9.94175 6.59375 9.82925 6.51875 9.66675 6.51875C9.50425 6.51875 9.39175 6.59375 9.32925 6.74375L8.673 8.3L7.00425 8.43125C6.82925 8.44375 6.71675 8.52825 6.66675 8.68475C6.61675 8.84125 6.65425 8.9755 6.77925 9.0875L8.05425 10.1938L7.67925 11.825C7.64175 11.9875 7.68875 12.1158 7.82025 12.2098C7.95175 12.3038 8.086 12.3068 8.223 12.2188L9.66675 11.3563Z" fill="#B16C4C"/>
<path d="M40.1792 15.5L38.7167 16.9437C38.4292 17.2312 38.0792 17.375 37.6667 17.375C37.2542 17.375 36.9042 17.2312 36.6167 16.9437L35.1542 15.5H33.1667C32.7542 15.5 32.401 15.353 32.107 15.059C31.813 14.765 31.6662 14.412 31.6667 14V12.0125L30.223 10.55C29.9355 10.2625 29.7917 9.9125 29.7917 9.5C29.7917 9.0875 29.9355 8.7375 30.223 8.45L31.6667 6.9875V5C31.6667 4.5875 31.8137 4.23425 32.1077 3.94025C32.4017 3.64625 32.7547 3.4995 33.1667 3.5H35.1542L36.6167 2.05625C36.9042 1.76875 37.2542 1.625 37.6667 1.625C38.0792 1.625 38.4292 1.76875 38.7167 2.05625L40.1792 3.5H42.1667C42.5792 3.5 42.9325 3.647 43.2265 3.941C43.5205 4.235 43.6672 4.588 43.6667 5V6.9875L45.1105 8.45C45.398 8.7375 45.5417 9.0875 45.5417 9.5C45.5417 9.9125 45.398 10.2625 45.1105 10.55L43.6667 12.0125V14C43.6667 14.4125 43.5197 14.7657 43.2257 15.0597C42.9317 15.3538 42.5787 15.5005 42.1667 15.5H40.1792ZM37.6667 11.3563L39.1105 12.2188C39.248 12.3062 39.3822 12.3033 39.5132 12.2098C39.6442 12.1163 39.6912 11.988 39.6542 11.825L39.2792 10.1938L40.5542 9.0875C40.6792 8.975 40.7167 8.84075 40.6667 8.68475C40.6167 8.52875 40.5042 8.44425 40.3292 8.43125L38.6605 8.3L38.0042 6.74375C37.9417 6.59375 37.8292 6.51875 37.6667 6.51875C37.5042 6.51875 37.3917 6.59375 37.3292 6.74375L36.673 8.3L35.0042 8.43125C34.8292 8.44375 34.7167 8.52825 34.6667 8.68475C34.6167 8.84125 34.6542 8.9755 34.7792 9.0875L36.0542 10.1938L35.6792 11.825C35.6417 11.9875 35.6887 12.1158 35.8202 12.2098C35.9517 12.3038 36.086 12.3068 36.223 12.2188L37.6667 11.3563Z" fill="#B16C4C"/>
<path d="M68.1792 15.5L66.7167 16.9437C66.4292 17.2312 66.0792 17.375 65.6667 17.375C65.2542 17.375 64.9042 17.2312 64.6167 16.9437L63.1542 15.5H61.1667C60.7542 15.5 60.401 15.353 60.107 15.059C59.813 14.765 59.6662 14.412 59.6667 14V12.0125L58.223 10.55C57.9355 10.2625 57.7917 9.9125 57.7917 9.5C57.7917 9.0875 57.9355 8.7375 58.223 8.45L59.6667 6.9875V5C59.6667 4.5875 59.8137 4.23425 60.1077 3.94025C60.4017 3.64625 60.7547 3.4995 61.1667 3.5H63.1542L64.6167 2.05625C64.9042 1.76875 65.2542 1.625 65.6667 1.625C66.0792 1.625 66.4292 1.76875 66.7167 2.05625L68.1792 3.5H70.1667C70.5792 3.5 70.9325 3.647 71.2265 3.941C71.5205 4.235 71.6672 4.588 71.6667 5V6.9875L73.1105 8.45C73.398 8.7375 73.5417 9.0875 73.5417 9.5C73.5417 9.9125 73.398 10.2625 73.1105 10.55L71.6667 12.0125V14C71.6667 14.4125 71.5197 14.7657 71.2257 15.0597C70.9317 15.3538 70.5787 15.5005 70.1667 15.5H68.1792ZM65.6667 11.3563L67.1105 12.2188C67.248 12.3062 67.3822 12.3033 67.5132 12.2098C67.6442 12.1163 67.6912 11.988 67.6542 11.825L67.2792 10.1938L68.5542 9.0875C68.6792 8.975 68.7167 8.84075 68.6667 8.68475C68.6167 8.52875 68.5042 8.44425 68.3292 8.43125L66.6605 8.3L66.0042 6.74375C65.9417 6.59375 65.8292 6.51875 65.6667 6.51875C65.5042 6.51875 65.3917 6.59375 65.3292 6.74375L64.673 8.3L63.0042 8.43125C62.8292 8.44375 62.7167 8.52825 62.6667 8.68475C62.6167 8.84125 62.6542 8.9755 62.7792 9.0875L64.0542 10.1938L63.6792 11.825C63.6417 11.9875 63.6887 12.1158 63.8202 12.2098C63.9517 12.3038 64.086 12.3068 64.223 12.2188L65.6667 11.3563Z" fill="#B16C4C"/>
</svg>
